<svg width="23" height="23" viewBox="0 0 23 23" fill="none" xmlns="http://www.w3.org/2000/svg">
<path d="M18.5 7.30112C18.5 5.62996 17.7625 4.02724 16.4497 2.84555C15.137 1.66387 13.3565 1 11.5 1C9.64348 1 7.86301 1.66387 6.55025 2.84555C5.2375 4.02724 4.5 5.62996 4.5 7.30112C4.5 14.6524 1 16.7528 1 16.7528H22C22 16.7528 18.5 14.6524 18.5 7.30112Z" stroke="#FF0000" stroke-linecap="round" stroke-linejoin="round"/>
<path d="M13.5181 20.9536C13.313 21.2719 13.0186 21.5361 12.6644 21.7198C12.3102 21.9034 11.9086 22.0001 11.4998 22.0001C11.091 22.0001 10.6894 21.9034 10.3352 21.7198C9.98096 21.5361 9.68656 21.2719 9.48145 20.9536" stroke="#FF0000" stroke-linecap="round" stroke-linejoin="round"/>
</svg>
